# xmcd
# 
# Track frame offsets:
#     150
#     13215
#     25413
#     37735
#     50528
#     64273
#     74363
#     84858
#     97118
#     109560
#     119453
#     131153
#     145515
#     156925
#     168238
#     179450
#     191963
#     203753
#     214183
#     224428
#     236868
#     249605
#     263210
#     275450
# 
# Disc length: 3877
# 
# Revision: 0
# Processed by: cddbd v1.5.2PL0 Copyright (c) Steve Scherf et al.
# Submitted via: fre:ac v1.0.17
# 
DISCID=6c0f2318
DTITLE=beau jocque - pick up on this
DYEAR=1992
DGENRE=zideco
TTITLE0=Indifference
TTITLE1=Madam's
TTITLE2=Gitan Swing
TTITLE3=Pepee
TTITLE4=Ciro's
TTITLE5=La Godasse
TTITLE6=La Guigne
TTITLE7=Swing Promenade
TTITLE8=Minouche
TTITLE9=Quai De La Jatte
TTITLE10=Joyeux Vagabond
TTITLE11=La Zone
TTITLE12=Jockey Club
TTITLE13=Pacific
TTITLE14=Swing 41
TTITLE15=Mauresque
TTITLE16=Hong Kop
TTITLE17=Impression Nocturnes
TTITLE18=Home Trainer
TTITLE19=Claridge
TTITLE20=Pasion
TTITLE21=Pre Catelan
TTITLE22=Air Mail Special
TTITLE23=Czardas
EXTD=1994
EXTT0=
EXTT1=
EXTT2=
EXTT3=
EXTT4=
EXTT5=
EXTT6=
EXTT7=
EXTT8=
EXTT9=
EXTT10=
EXTT11=
EXTT12=
EXTT13=
EXTT14=
EXTT15=
EXTT16=
EXTT17=
EXTT18=
EXTT19=
EXTT20=
EXTT21=
EXTT22=
EXTT23=
PLAYORDER=
